<?xml version="1.0" encoding="utf-8"?>
<!-- Generator: Adobe Illustrator 25.0.1, SVG Export Plug-In . SVG Version: 6.00 Build 0)  -->
<svg version="1.1" id="图层_1" xmlns="http://www.w3.org/2000/svg" xmlns:xlink="http://www.w3.org/1999/xlink" x="0px" y="0px"
	 viewBox="0 0 445 419.2" style="enable-background:new 0 0 445 419.2;" xml:space="preserve">
<style type="text/css">
	.st0{fill:none;stroke:#33628D;stroke-width:14.9664;stroke-linecap:round;stroke-linejoin:round;}
	.st1{fill:none;stroke:#31668E;stroke-width:15.5541;stroke-linecap:round;stroke-linejoin:round;}
	.st2{fill:none;stroke:#472D7B;stroke-width:8.0985;stroke-linecap:round;stroke-linejoin:round;}
	.st3{fill:none;stroke:#472C7A;stroke-width:7.8327;stroke-linecap:round;stroke-linejoin:round;}
	.st4{fill:none;stroke:#470E61;stroke-width:3.8556;stroke-linecap:round;stroke-linejoin:round;}
	.st5{fill:none;stroke:#31668E;stroke-width:15.4924;stroke-linecap:round;stroke-linejoin:round;}
	.st6{fill:none;stroke:#355F8D;stroke-width:14.629;stroke-linecap:round;stroke-linejoin:round;}
	.st7{fill:none;stroke:#46337F;stroke-width:8.8914;stroke-linecap:round;stroke-linejoin:round;}
	.st8{fill:none;stroke:#48186A;stroke-width:5.3111;stroke-linecap:round;stroke-linejoin:round;}
	.st9{fill:none;stroke:#482576;stroke-width:6.99;stroke-linecap:round;stroke-linejoin:round;}
	.st10{fill:none;stroke:#355F8D;stroke-width:14.6018;stroke-linecap:round;stroke-linejoin:round;}
	.st11{fill:none;stroke:#482374;stroke-width:6.6646;stroke-linecap:round;stroke-linejoin:round;}
	.st12{fill:none;stroke:#471365;stroke-width:4.4825;stroke-linecap:round;stroke-linejoin:round;}
	.st13{fill:none;stroke:#482374;stroke-width:6.6362;stroke-linecap:round;stroke-linejoin:round;}
	.st14{fill:none;stroke:#482576;stroke-width:7.0411;stroke-linecap:round;stroke-linejoin:round;}
	.st15{fill:none;stroke:#46337F;stroke-width:8.8286;stroke-linecap:round;stroke-linejoin:round;}
	.st16{fill:none;stroke:#38588C;stroke-width:13.6243;stroke-linecap:round;stroke-linejoin:round;}
	.st17{fill:none;stroke:#472A7A;stroke-width:7.8097;stroke-linecap:round;stroke-linejoin:round;}
	.st18{fill:none;stroke:#481A6C;stroke-width:5.4697;stroke-linecap:round;stroke-linejoin:round;}
	.st19{fill:none;stroke:#481B6D;stroke-width:5.5802;stroke-linecap:round;stroke-linejoin:round;}
	.st20{fill:none;stroke:#481C6E;stroke-width:5.747;stroke-linecap:round;stroke-linejoin:round;}
	.st21{fill:none;stroke:#472F7D;stroke-width:8.4596;stroke-linecap:round;stroke-linejoin:round;}
	.st22{fill:none;stroke:#460A5D;stroke-width:3.2759;stroke-linecap:round;stroke-linejoin:round;}
	.st23{fill:none;stroke:#404688;stroke-width:11.3695;stroke-linecap:round;stroke-linejoin:round;}
	.st24{fill:none;stroke:#460A5D;stroke-width:3.2409;stroke-linecap:round;stroke-linejoin:round;}
	.st25{fill:none;stroke:#482374;stroke-width:6.6702;stroke-linecap:round;stroke-linejoin:round;}
	.st26{fill:none;stroke:#481467;stroke-width:4.6817;stroke-linecap:round;stroke-linejoin:round;}
	.st27{fill:none;stroke:#481C6E;stroke-width:5.794;stroke-linecap:round;stroke-linejoin:round;}
	.st28{fill:none;stroke:#482475;stroke-width:6.8872;stroke-linecap:round;stroke-linejoin:round;}
	.st29{fill:none;stroke:#46075A;stroke-width:2.8566;stroke-linecap:round;stroke-linejoin:round;}
	.st30{fill:none;stroke:#46085C;stroke-width:3.1599;stroke-linecap:round;stroke-linejoin:round;}
	.st31{fill:none;stroke:#482374;stroke-width:6.7791;stroke-linecap:round;stroke-linejoin:round;}
	.st32{fill:none;stroke:#481B6D;stroke-width:5.5823;stroke-linecap:round;stroke-linejoin:round;}
	.st33{fill:none;stroke:#482475;stroke-width:6.9305;stroke-linecap:round;stroke-linejoin:round;}
	.st34{fill:none;stroke:#481D6F;stroke-width:5.9606;stroke-linecap:round;stroke-linejoin:round;}
	.st35{fill:none;stroke:#472D7B;stroke-width:8.1365;stroke-linecap:round;stroke-linejoin:round;}
	.st36{fill:none;stroke:#3C4F8A;stroke-width:12.443;stroke-linecap:round;stroke-linejoin:round;}
	.st37{fill:none;stroke:#481B6D;stroke-width:5.5678;stroke-linecap:round;stroke-linejoin:round;}
	.st38{fill:none;stroke:#471063;stroke-width:4.0289;stroke-linecap:round;stroke-linejoin:round;}
	.st39{fill:none;stroke:#470E61;stroke-width:3.854;stroke-linecap:round;stroke-linejoin:round;}
	.st40{fill:none;stroke:#481B6D;stroke-width:5.6354;stroke-linecap:round;stroke-linejoin:round;}
	.st41{fill:none;stroke:#481B6D;stroke-width:5.5952;stroke-linecap:round;stroke-linejoin:round;}
	.st42{fill:none;stroke:#481668;stroke-width:4.8964;stroke-linecap:round;stroke-linejoin:round;}
	.st43{fill:none;stroke:#482475;stroke-width:6.9526;stroke-linecap:round;stroke-linejoin:round;}
	.st44{fill:none;stroke:#481D6F;stroke-width:6.0659;stroke-linecap:round;stroke-linejoin:round;}
	.st45{fill:none;stroke:#414287;stroke-width:10.8519;stroke-linecap:round;stroke-linejoin:round;}
	.st46{fill:none;stroke:#481A6C;stroke-width:5.3734;stroke-linecap:round;stroke-linejoin:round;}
	.st47{fill:none;stroke:#481B6D;stroke-width:5.6283;stroke-linecap:round;stroke-linejoin:round;}
	.st48{fill:#25848E;}
	.st49{fill:#33628D;}
	.st50{fill:#31668E;}
	.st51{fill:#472D7B;}
	.st52{fill:#472C7A;}
	.st53{fill:#470E61;}
	.st54{fill:#355F8D;}
	.st55{fill:#46337F;}
	.st56{fill:#48186A;}
	.st57{fill:#482576;}
	.st58{fill:#482374;}
	.st59{fill:#471365;}
	.st60{fill:#38588C;}
	.st61{fill:#472A7A;}
	.st62{fill:#481A6C;}
	.st63{fill:#481B6D;}
	.st64{fill:#481C6E;}
	.st65{fill:#472F7D;}
	.st66{fill:#460A5D;}
	.st67{fill:#404688;}
	.st68{fill:#481467;}
	.st69{fill:#482475;}
	.st70{fill:#46075A;}
	.st71{fill:#46085C;}
	.st72{fill:#481D6F;}
	.st73{fill:#3C4F8A;}
	.st74{fill:#471063;}
	.st75{fill:#481668;}
	.st76{fill:#414287;}
</style>
<g transform="translate(0,0) scale(1)">
	<path class="st0" d="M219.5,209.8c-11.3,12.2,15.4-6.4,30.8-12.8"/>
	<path class="st1" d="M219.5,209.8c-11.3,12.2,8,14.6,16,29.2"/>
	<path class="st2" d="M219.5,209.8c-11.3,12.2-11.8-11.7-23.6-23.5"/>
	<path class="st3" d="M219.5,209.8c-11.3,12.2-2.6-16.5-5.2-32.9"/>
	<path class="st0" d="M250.3,197c15.4-6.4,15.4-6.4,30.8-12.8"/>
	<path class="st4" d="M235.5,239c8,14.6,33.8-24.4,50.4-22.8"/>
	<path class="st5" d="M235.5,239c8,14.6-38.8,15.3-46.4,30.1"/>
	<path class="st2" d="M195.9,186.3c-11.8-11.7-11.8-11.7-23.6-23.5"/>
	<path class="st3" d="M214.3,176.8c-2.6-16.5-2.6-16.5-5.1-32.9"/>
	<path class="st0" d="M281.1,184.2c15.4-6.4,15.4-6.4,30.8-12.8"/>
	<path class="st4" d="M285.9,216.2c16.6,1.6,16.6,1.6,33.2,3.2"/>
	<path class="st6" d="M189.1,269.1c-7.6,14.8,79.4,8.1,89.2,21.5"/>
	<path class="st7" d="M189.1,269.1c-7.6,14.8-53-59.6-69.6-59.7"/>
	<path class="st2" d="M172.2,162.8c-11.8-11.7-17.6-5.3-30.5-15.8"/>
	<path class="st8" d="M209.2,143.9c-2.6-16.5-8.9-15.2-12.8-31.4"/>
	<path class="st9" d="M209.2,143.9c-2.6-16.5,3.8-17.2,2.6-33.8"/>
	<path class="st10" d="M311.9,171.5c15.4-6.4-10.7-45,1-56.9"/>
	<path class="st11" d="M311.9,171.5c15.4-6.4,19.4,4.8,35.3,0"/>
	<path class="st4" d="M319,219.4c16.6,1.6,16.1,6.1,32.6,8.4"/>
	<path class="st6" d="M278.3,290.6c9.8,13.5-66,35.5-67,52.2"/>
	<path class="st12" d="M119.5,209.4c-16.7-0.1-7.1,46.6-22.4,53.2"/>
	<path class="st13" d="M119.5,209.4c-16.7-0.1-16.6,4.4-33.3,5"/>
	<path class="st14" d="M119.5,209.4c-16.7-0.1-4.9-50.7-19.9-57.9"/>
	<path class="st2" d="M141.7,147c-13-10.5-13-10.5-25.9-20.9"/>
	<path class="st8" d="M196.4,112.4c-3.8-16.2-3.8-16.2-7.7-32.4"/>
	<path class="st9" d="M211.8,110.1c-1.3-16.6-1.3-16.6-2.6-33.2"/>
	<path class="st15" d="M312.9,114.6c11.7-11.9-26-38.9-18.6-53.7"/>
	<path class="st16" d="M312.9,114.6c11.7-11.9,21.5-1.2,34.3-11.9"/>
	<path class="st11" d="M347.2,171.5c16-4.8,18.9,6.5,35.2,3"/>
	<path class="st4" d="M351.6,227.8c16.5,2.3,16.5,2.3,33,4.5"/>
	<path class="st17" d="M211.3,342.8c-1,16.6,142.3-65.8,157.2-58.3"/>
	<path class="st18" d="M211.3,342.8c-1,16.6,133.6-50.7,147.5-41.5"/>
	<path class="st19" d="M211.3,342.8c-1,16.6,121.3-34.5,133.8-23.5"/>
	<path class="st20" d="M211.3,342.8c-1,16.6,109-22,120.2-9.7"/>
	<path class="st21" d="M211.3,342.8c-1,16.6,75.6,1,83,15.9"/>
	<path class="st22" d="M211.3,342.8c-1,16.6,34.3,14.6,37.2,31.1"/>
	<path class="st23" d="M211.3,342.8c-1,16.6-17.8,14.6-20.7,31.1"/>
	<path class="st24" d="M211.3,342.8c-1,16.6-74.2-7.8-83.3,6.2"/>
	<path class="st25" d="M211.3,342.8c-1,16.6-100.9-30.1-113-18.7"/>
	<path class="st12" d="M97.1,262.6c-15.3,6.6-15.3,6.6-30.6,13.2"/>
	<path class="st26" d="M86.2,214.4c-16.7,0.6-12,32.8-28.1,36.9"/>
	<path class="st27" d="M86.2,214.4c-16.7,0.6-16.7-1.7-33.4-1.4"/>
	<path class="st28" d="M99.6,151.5c-15-7.3-22.9,12.5-38.8,7.4"/>
	<path class="st29" d="M99.6,151.5c-15-7.3-12.8-11.6-27.5-19.4"/>
	<path class="st2" d="M115.7,126c-13-10.5-9.2-14.9-21.8-25.9"/>
	<path class="st8" d="M188.8,80c-3.8-16.2-9.5-14.8-13.9-30.8"/>
	<path class="st30" d="M209.2,76.8c-1.3-16.6-7.1-16.1-9-32.6"/>
	<path class="st31" d="M209.2,76.8c-1.3-16.6,4.5-17,3.9-33.6"/>
	<path class="st32" d="M294.3,60.8c7.5-14.9,25.9-4.2,35.1-18.2"/>
	<path class="st33" d="M294.3,60.8c7.5-14.9,31.8-0.2,41.5-13.8"/>
	<path class="st34" d="M294.3,60.8c7.5-14.9,37.5,4,47.7-9.1"/>
	<path class="st35" d="M347.2,102.6c12.8-10.7,5.7-18.7,17.8-30.1"/>
	<path class="st36" d="M347.2,102.6c12.8-10.7,10.5-13.4,23-24.4"/>
	<path class="st37" d="M347.2,102.6c12.8-10.7,15-8,28-18.4"/>
	<path class="st38" d="M382.4,174.5c16.3-3.5,12.7-17.3,28.7-22.1"/>
	<path class="st39" d="M382.4,174.5c16.3-3.5,14.6-10.4,30.8-14.6"/>
	<path class="st40" d="M382.4,174.5c16.3-3.5,17.7,3.4,34.1,0.6"/>
	<path class="st4" d="M384.6,232.3c16.5,2.3,16.5,2.3,33,4.5"/>
	<path class="st17" d="M368.4,284.6c14.9,7.5,13.3,10.6,28,18.4"/>
	<path class="st18" d="M358.7,301.3c13.9,9.2,15.9,6.2,29.9,15.1"/>
	<path class="st19" d="M345.1,319.3c12.6,11,12.6,11,25.1,21.9"/>
	<path class="st20" d="M331.5,333.2c11.2,12.3,11.2,12.3,22.4,24.7"/>
	<path class="st41" d="M294.3,358.7c7.5,14.9,37.5-4,47.7,9.1"/>
	<path class="st42" d="M294.3,358.7c7.5,14.9-12.1,23.3-6.4,39"/>
	<path class="st43" d="M294.3,358.7c7.5,14.9-25.6,27.7-21.2,43.7"/>
	<path class="st22" d="M248.4,373.9c2.9,16.4-0.6,17,2,33.5"/>
	<path class="st44" d="M190.6,373.9c-2.9,16.4,0.6,17-2,33.5"/>
	<path class="st45" d="M190.6,373.9c-2.9,16.4-6.4,15.8-9.6,32.1"/>
	<path class="st24" d="M127.9,349c-9.2,13.9-9.2,13.9-18.3,27.9"/>
	<path class="st25" d="M98.3,324.1c-12.1,11.4-7.1,16.5-18.8,28.4"/>
	<path class="st12" d="M66.5,275.8c-15.3,6.6-15.3,6.6-30.6,13.2"/>
	<path class="st26" d="M58.1,251.3C42,255.5,46,269.1,30.3,274.5"/>
	<path class="st27" d="M52.9,213c-16.7,0.3-16.7,0.3-33.3,0.6"/>
	<path class="st46" d="M60.8,158.9c-15.9-5.1-20.5,12.1-36.8,8.5"/>
	<path class="st47" d="M60.8,158.9c-15.9-5.1-18.8,5.2-35,1"/>
	<path class="st29" d="M72,132.1c-14.7-7.8-14.7-7.8-29.5-15.5"/>
	<path class="st2" d="M93.9,100.2c-12.6-11-12.6-11-25.1-21.9"/>
	<path class="st8" d="M174.8,49.2c-4.5-16.1-4.5-16.1-8.9-32.1"/>
	<path class="st30" d="M200.2,44.2c-1.9-16.6-1.9-16.6-3.9-33.1"/>
	<path class="st31" d="M213,43.2c-0.6-16.7-0.6-16.7-1.3-33.3"/>
	<g transform="translate(318.5,300)">
		<circle class="st48" cx="-99" cy="-90.2" r="15.2"/>
	</g>
	<g transform="translate(349.29598441704286,287.24388558783033)">
		<circle class="st49" cx="-99" cy="-90.2" r="12.3"/>
	</g>
	<g transform="translate(334.49426321130017,329.24542110209325)">
		<circle class="st50" cx="-99" cy="-90.2" r="12.6"/>
	</g>
	<g transform="translate(294.8537160848036,276.50607806020815)">
		<circle class="st51" cx="-99" cy="-90.2" r="7.6"/>
	</g>
	<g transform="translate(313.349373573072,267.0670050174397)">
		<circle class="st52" cx="-99" cy="-90.2" r="7.4"/>
	</g>
	<g transform="translate(380.0919688340858,274.48777117566067)">
		<circle class="st49" cx="-99" cy="-90.2" r="12.3"/>
	</g>
	<g transform="translate(384.8535197195444,306.45405804687863)">
		<circle class="st53" cx="-99" cy="-90.2" r="4.5"/>
	</g>
	<g transform="translate(288.1343586018463,359.34957680492073)">
		<circle class="st50" cx="-99" cy="-90.2" r="12.6"/>
	</g>
	<g transform="translate(271.20743216960716,253.01215612041625)">
		<circle class="st51" cx="-99" cy="-90.2" r="7.6"/>
	</g>
	<g transform="translate(308.19874714614394,234.1340100348794)">
		<circle class="st52" cx="-99" cy="-90.2" r="7.4"/>
	</g>
	<g transform="translate(410.8879532511287,261.731656763491)">
		<circle class="st49" cx="-99" cy="-90.2" r="12.3"/>
	</g>
	<g transform="translate(418.0302795793166,309.6810870703179)">
		<circle class="st53" cx="-99" cy="-90.2" r="4.5"/>
	</g>
	<g transform="translate(377.28599588351193,380.89627116241957)">
		<circle class="st54" cx="-99" cy="-90.2" r="12"/>
	</g>
	<g transform="translate(218.5005942842724,299.655244287489)">
		<circle class="st55" cx="-99" cy="-90.2" r="8.2"/>
	</g>
	<g transform="translate(240.663508807584,237.21878753279015)">
		<circle class="st51" cx="-99" cy="-90.2" r="7.6"/>
	</g>
	<g transform="translate(295.438412925756,202.69551294201761)">
		<circle class="st56" cx="-99" cy="-90.2" r="5.6"/>
	</g>
	<g transform="translate(310.7507579328069,200.30070588322081)">
		<circle class="st57" cx="-99" cy="-90.2" r="6.8"/>
	</g>
	<g transform="translate(411.8623130356225,204.80936872561347)">
		<circle class="st54" cx="-99" cy="-90.2" r="12"/>
	</g>
	<g transform="translate(446.23193497539853,261.7595689718546)">
		<circle class="st58" cx="-99" cy="-90.2" r="6.6"/>
	</g>
	<g transform="translate(450.60672044864606,318.04417330001746)">
		<circle class="st53" cx="-99" cy="-90.2" r="4.5"/>
	</g>
	<g transform="translate(310.2557342641286,433.0782095620997)">
		<circle class="st54" cx="-99" cy="-90.2" r="12"/>
	</g>
	<g transform="translate(196.07118574929677,352.81063547188757)">
		<circle class="st59" cx="-99" cy="-90.2" r="4.9"/>
	</g>
	<g transform="translate(185.24788973078722,304.6532662270001)">
		<circle class="st58" cx="-99" cy="-90.2" r="6.6"/>
	</g>
	<g transform="translate(198.58532837078752,241.70549506312)">
		<circle class="st57" cx="-99" cy="-90.2" r="6.9"/>
	</g>
	<g transform="translate(214.71801174344535,216.29171671038682)">
		<circle class="st51" cx="-99" cy="-90.2" r="7.6"/>
	</g>
	<g transform="translate(287.75121723434125,170.26068392269016)">
		<circle class="st56" cx="-99" cy="-90.2" r="5.6"/>
	</g>
	<g transform="translate(308.1676772437425,167.0676078442944)">
		<circle class="st57" cx="-99" cy="-90.2" r="6.8"/>
	</g>
	<g transform="translate(393.2998633667437,151.0612266127646)">
		<circle class="st55" cx="-99" cy="-90.2" r="8.1"/>
	</g>
	<g transform="translate(446.174073853163,192.8687317189101)">
		<circle class="st60" cx="-99" cy="-90.2" r="11.4"/>
	</g>
	<g transform="translate(481.3889763751059,264.7160212950982)">
		<circle class="st58" cx="-99" cy="-90.2" r="6.6"/>
	</g>
	<g transform="translate(483.63340056080756,322.55521662502184)">
		<circle class="st53" cx="-99" cy="-90.2" r="4.5"/>
	</g>
	<g transform="translate(467.4387733872354,374.7998633667437)">
		<circle class="st61" cx="-99" cy="-90.2" r="7.4"/>
	</g>
	<g transform="translate(457.7479685688228,391.5848296784677)">
		<circle class="st62" cx="-99" cy="-90.2" r="5.7"/>
	</g>
	<g transform="translate(444.0726493879435,409.5868947615106)">
		<circle class="st63" cx="-99" cy="-90.2" r="5.8"/>
	</g>
	<g transform="translate(430.5013100925871,423.4240021848341)">
		<circle class="st64" cx="-99" cy="-90.2" r="5.9"/>
	</g>
	<g transform="translate(393.2998633667437,448.9387733872354)">
		<circle class="st65" cx="-99" cy="-90.2" r="7.9"/>
	</g>
	<g transform="translate(347.44136294448845,464.1346255020347)">
		<circle class="st66" cx="-99" cy="-90.2" r="4"/>
	</g>
	<g transform="translate(289.55863705551155,464.1346255020347)">
		<circle class="st67" cx="-99" cy="-90.2" r="9.9"/>
	</g>
	<g transform="translate(226.91517032153237,439.2479685688228)">
		<circle class="st66" cx="-99" cy="-90.2" r="4"/>
	</g>
	<g transform="translate(197.2710597378252,414.3736063114556)">
		<circle class="st58" cx="-99" cy="-90.2" r="6.6"/>
	</g>
	<g transform="translate(165.463982186621,366.0132943398595)">
		<circle class="st59" cx="-99" cy="-90.2" r="4.9"/>
	</g>
	<g transform="translate(157.10167324536567,341.5735240096635)">
		<circle class="st68" cx="-99" cy="-90.2" r="5.1"/>
	</g>
	<g transform="translate(151.86467159191642,303.23188862863736)">
		<circle class="st64" cx="-99" cy="-90.2" r="5.9"/>
	</g>
	<g transform="translate(159.7920191102641,249.11233371748116)">
		<circle class="st69" cx="-99" cy="-90.2" r="6.8"/>
	</g>
	<g transform="translate(171.039700470557,222.3260800495769)">
		<circle class="st70" cx="-99" cy="-90.2" r="3.6"/>
	</g>
	<g transform="translate(192.9273506120565,190.41310523848944)">
		<circle class="st51" cx="-99" cy="-90.2" r="7.6"/>
	</g>
	<g transform="translate(273.8045645398938,139.43818689735323)">
		<circle class="st56" cx="-99" cy="-90.2" r="5.6"/>
	</g>
	<g transform="translate(299.15118097912836,134.46027370967613)">
		<circle class="st71" cx="-99" cy="-90.2" r="3.9"/>
	</g>
	<g transform="translate(312.03743812386375,133.4586745826283)">
		<circle class="st58" cx="-99" cy="-90.2" r="6.7"/>
	</g>
	<g transform="translate(428.4017956141612,132.90243771741274)">
		<circle class="st63" cx="-99" cy="-90.2" r="5.8"/>
	</g>
	<g transform="translate(434.7984142576054,137.28958594740647)">
		<circle class="st69" cx="-99" cy="-90.2" r="6.8"/>
	</g>
	<g transform="translate(441.02010903864056,141.92146609624814)">
		<circle class="st72" cx="-99" cy="-90.2" r="6.1"/>
	</g>
	<g transform="translate(463.9747283146097,162.7516724262533)">
		<circle class="st51" cx="-99" cy="-90.2" r="7.7"/>
	</g>
	<g transform="translate(469.1871792655321,168.49572628618725)">
		<circle class="st73" cx="-99" cy="-90.2" r="10.6"/>
	</g>
	<g transform="translate(474.17298238483204,174.4375750655803)">
		<circle class="st63" cx="-99" cy="-90.2" r="5.8"/>
	</g>
	<g transform="translate(510.09790246309774,242.63935345778197)">
		<circle class="st74" cx="-99" cy="-90.2" r="4.6"/>
	</g>
	<g transform="translate(512.1779921055612,250.11177118840374)">
		<circle class="st53" cx="-99" cy="-90.2" r="4.5"/>
	</g>
	<g transform="translate(515.4615506024415,265.27036446661396)">
		<circle class="st63" cx="-99" cy="-90.2" r="5.8"/>
	</g>
	<g transform="translate(516.6600806729691,327.06625995002616)">
		<circle class="st53" cx="-99" cy="-90.2" r="4.5"/>
	</g>
	<g transform="translate(495.4523594353316,393.20870394050775)">
		<circle class="st61" cx="-99" cy="-90.2" r="7.4"/>
	</g>
	<g transform="translate(487.69728518396823,406.64088656033823)">
		<circle class="st62" cx="-99" cy="-90.2" r="5.7"/>
	</g>
	<g transform="translate(469.18717926553217,431.5042737138127)">
		<circle class="st63" cx="-99" cy="-90.2" r="5.8"/>
	</g>
	<g transform="translate(452.90157211110454,448.1088026218009)">
		<circle class="st64" cx="-99" cy="-90.2" r="5.9"/>
	</g>
	<g transform="translate(441.0201090386406,458.0785339037518)">
		<circle class="st63" cx="-99" cy="-90.2" r="5.8"/>
	</g>
	<g transform="translate(386.90402866513375,487.93852415718163)">
		<circle class="st75" cx="-99" cy="-90.2" r="5.3"/>
	</g>
	<g transform="translate(372.13452255212746,492.67417572317606)">
		<circle class="st69" cx="-99" cy="-90.2" r="6.8"/>
	</g>
	<g transform="translate(349.4037585615681,497.5979698953618)">
		<circle class="st66" cx="-99" cy="-90.2" r="4"/>
	</g>
	<g transform="translate(287.5962414384319,497.5979698953618)">
		<circle class="st72" cx="-99" cy="-90.2" r="6.1"/>
	</g>
	<g transform="translate(279.95754789038205,496.25106212547695)">
		<circle class="st76" cx="-99" cy="-90.2" r="9.5"/>
	</g>
	<g transform="translate(208.59820438583887,467.0975622825873)">
		<circle class="st66" cx="-99" cy="-90.2" r="4"/>
	</g>
	<g transform="translate(178.4565304465663,442.7859469115798)">
		<circle class="st58" cx="-99" cy="-90.2" r="6.6"/>
	</g>
	<g transform="translate(134.8567786239452,379.2159532078314)">
		<circle class="st59" cx="-99" cy="-90.2" r="4.9"/>
	</g>
	<g transform="translate(129.2703686248499,364.74678841166417)">
		<circle class="st68" cx="-99" cy="-90.2" r="5.1"/>
	</g>
	<g transform="translate(118.5376059102997,303.8782663543649)">
		<circle class="st64" cx="-99" cy="-90.2" r="5.9"/>
	</g>
	<g transform="translate(123.0332283498729,257.6592255541178)">
		<circle class="st62" cx="-99" cy="-90.2" r="5.6"/>
	</g>
	<g transform="translate(124.82200789443883,250.1117711884038)">
		<circle class="st63" cx="-99" cy="-90.2" r="5.8"/>
	</g>
	<g transform="translate(141.54764056466843,206.7912960594923)">
		<circle class="st70" cx="-99" cy="-90.2" r="3.6"/>
	</g>
	<g transform="translate(167.8128207344678,168.4957262861873)">
		<circle class="st51" cx="-99" cy="-90.2" r="7.6"/>
	</g>
	<g transform="translate(264.8654774478726,107.32582427682391)">
		<circle class="st56" cx="-99" cy="-90.2" r="5.6"/>
	</g>
	<g transform="translate(295.281417174954,101.35232845161138)">
		<circle class="st71" cx="-99" cy="-90.2" r="3.9"/>
	</g>
	<g transform="translate(310.74492574863655,100.150409499154)">
		<circle class="st58" cx="-99" cy="-90.2" r="6.7"/>
	</g>
</g>
</svg>
